<mxfile host="app.diagrams.net" modified="2022-04-04T07:00:32.214Z" agent="5.0 (Macintosh; Intel Mac OS X 10_15_7) AppleWebKit/537.36 (KHTML, like Gecko) Chrome/100.0.4896.60 Safari/537.36" etag="R-LSMAfelvlo9Cw_gRub" version="17.4.0" type="github">
  <diagram id="kgpKYQtTHZ0yAKxKKP6v" name="Page-1">
    <mxGraphModel dx="430" dy="293" grid="1" gridSize="10" guides="1" tooltips="1" connect="1" arrows="1" fold="1" page="1" pageScale="1" pageWidth="850" pageHeight="1100" math="0" shadow="0">
      <root>
        <mxCell id="0" />
        <mxCell id="1" parent="0" />
        <mxCell id="3nuBFxr9cyL0pnOWT2aG-1" value=":Crabe" style="shape=umlLifeline;perimeter=lifelinePerimeter;container=1;collapsible=0;recursiveResize=0;rounded=0;shadow=0;strokeWidth=1;" parent="1" vertex="1">
          <mxGeometry x="165" y="110" width="100" height="510" as="geometry" />
        </mxCell>
        <mxCell id="3nuBFxr9cyL0pnOWT2aG-2" value="" style="points=[];perimeter=orthogonalPerimeter;rounded=0;shadow=0;strokeWidth=1;" parent="3nuBFxr9cyL0pnOWT2aG-1" vertex="1">
          <mxGeometry x="45" y="160" width="10" height="40" as="geometry" />
        </mxCell>
        <mxCell id="3nuBFxr9cyL0pnOWT2aG-3" value="GET :  sampleToSurvey(sampleSize,surveyID)" style="verticalAlign=bottom;startArrow=oval;endArrow=block;startSize=8;shadow=0;strokeWidth=1;fontColor=#000000;" parent="3nuBFxr9cyL0pnOWT2aG-1" edge="1">
          <mxGeometry relative="1" as="geometry">
            <mxPoint x="-125" y="130" as="sourcePoint" />
            <mxPoint x="225" y="130" as="targetPoint" />
          </mxGeometry>
        </mxCell>
        <mxCell id="3nuBFxr9cyL0pnOWT2aG-5" value=":Camunda ?" style="shape=umlLifeline;perimeter=lifelinePerimeter;container=1;collapsible=0;recursiveResize=0;rounded=0;shadow=0;strokeWidth=1;fontColor=#EA6B66;" parent="1" vertex="1">
          <mxGeometry x="345" y="110" width="100" height="520" as="geometry" />
        </mxCell>
        <mxCell id="3nuBFxr9cyL0pnOWT2aG-6" value="" style="points=[];perimeter=orthogonalPerimeter;rounded=0;shadow=0;strokeWidth=1;" parent="3nuBFxr9cyL0pnOWT2aG-5" vertex="1">
          <mxGeometry x="45" y="80" width="10" height="390" as="geometry" />
        </mxCell>
        <mxCell id="NftAxaM487FhpwE2u1ZJ-1" value=":Coleman" style="shape=umlLifeline;perimeter=lifelinePerimeter;container=1;collapsible=0;recursiveResize=0;rounded=0;shadow=0;strokeWidth=1;" parent="1" vertex="1">
          <mxGeometry x="530" y="110" width="100" height="520" as="geometry" />
        </mxCell>
        <mxCell id="NftAxaM487FhpwE2u1ZJ-19" value="" style="points=[];perimeter=orthogonalPerimeter;rounded=0;shadow=0;strokeWidth=1;" parent="NftAxaM487FhpwE2u1ZJ-1" vertex="1">
          <mxGeometry x="45" y="60" width="10" height="410" as="geometry" />
        </mxCell>
        <mxCell id="NftAxaM487FhpwE2u1ZJ-11" value="OK(id)" style="verticalAlign=bottom;endArrow=block;shadow=0;strokeWidth=1;" parent="NftAxaM487FhpwE2u1ZJ-1" edge="1">
          <mxGeometry relative="1" as="geometry">
            <mxPoint x="45" y="99.99999999999989" as="sourcePoint" />
            <mxPoint x="-490" y="100" as="targetPoint" />
          </mxGeometry>
        </mxCell>
        <mxCell id="NftAxaM487FhpwE2u1ZJ-10" value="POST: addSurvey(SurveyObject) " style="verticalAlign=bottom;startArrow=oval;endArrow=block;startSize=8;shadow=0;strokeWidth=1;" parent="NftAxaM487FhpwE2u1ZJ-1" edge="1">
          <mxGeometry x="0.0545" relative="1" as="geometry">
            <mxPoint x="-485" y="70" as="sourcePoint" />
            <mxPoint x="45" y="70" as="targetPoint" />
            <mxPoint as="offset" />
          </mxGeometry>
        </mxCell>
        <mxCell id="NftAxaM487FhpwE2u1ZJ-21" value="OK(id)" style="verticalAlign=bottom;endArrow=block;shadow=0;strokeWidth=1;fontSize=10;entryX=1.216;entryY=0.94;entryDx=0;entryDy=0;entryPerimeter=0;" parent="NftAxaM487FhpwE2u1ZJ-1" target="NftAxaM487FhpwE2u1ZJ-22" edge="1">
          <mxGeometry relative="1" as="geometry">
            <mxPoint x="40" y="310" as="sourcePoint" />
            <mxPoint x="-130.00000000000023" y="309.9999999999999" as="targetPoint" />
          </mxGeometry>
        </mxCell>
        <mxCell id="NftAxaM487FhpwE2u1ZJ-3" value=":Annuaire" style="shape=umlLifeline;perimeter=lifelinePerimeter;container=1;collapsible=0;recursiveResize=0;rounded=0;shadow=0;strokeWidth=1;" parent="1" vertex="1">
          <mxGeometry x="720" y="110" width="100" height="300" as="geometry" />
        </mxCell>
        <mxCell id="NftAxaM487FhpwE2u1ZJ-15" value="" style="points=[];perimeter=orthogonalPerimeter;rounded=0;shadow=0;strokeWidth=1;" parent="NftAxaM487FhpwE2u1ZJ-3" vertex="1">
          <mxGeometry x="45" y="200" width="10" height="50" as="geometry" />
        </mxCell>
        <mxCell id="NftAxaM487FhpwE2u1ZJ-4" value="Actor" style="shape=umlActor;verticalLabelPosition=bottom;verticalAlign=top;html=1;outlineConnect=0;" parent="1" vertex="1">
          <mxGeometry x="20" y="70" width="30" height="60" as="geometry" />
        </mxCell>
        <mxCell id="NftAxaM487FhpwE2u1ZJ-8" value="" style="endArrow=none;dashed=1;html=1;rounded=0;" parent="1" edge="1">
          <mxGeometry width="50" height="50" relative="1" as="geometry">
            <mxPoint x="40" y="610" as="sourcePoint" />
            <mxPoint x="40" y="160" as="targetPoint" />
          </mxGeometry>
        </mxCell>
        <mxCell id="NftAxaM487FhpwE2u1ZJ-9" value="OK(id)" style="verticalAlign=bottom;endArrow=block;entryX=1;entryY=0;shadow=0;strokeWidth=1;" parent="1" edge="1">
          <mxGeometry relative="1" as="geometry">
            <mxPoint x="390" y="470.2" as="sourcePoint" />
            <mxPoint x="40" y="470" as="targetPoint" />
          </mxGeometry>
        </mxCell>
        <mxCell id="NftAxaM487FhpwE2u1ZJ-13" value="POST: createAccount(List&lt;Person&gt;Object)" style="verticalAlign=bottom;endArrow=block;shadow=0;strokeWidth=1;exitX=1.211;exitY=0.213;exitDx=0;exitDy=0;exitPerimeter=0;" parent="1" edge="1">
          <mxGeometry relative="1" as="geometry">
            <mxPoint x="399.9999999999999" y="319.9999999999999" as="sourcePoint" />
            <mxPoint x="760" y="320" as="targetPoint" />
          </mxGeometry>
        </mxCell>
        <mxCell id="NftAxaM487FhpwE2u1ZJ-14" value="OK(id,List&lt;Compte&gt;)" style="verticalAlign=bottom;endArrow=block;shadow=0;strokeWidth=1;" parent="1" edge="1">
          <mxGeometry relative="1" as="geometry">
            <mxPoint x="760" y="350" as="sourcePoint" />
            <mxPoint x="410" y="350" as="targetPoint" />
          </mxGeometry>
        </mxCell>
        <mxCell id="NftAxaM487FhpwE2u1ZJ-17" value="GET: sample(sampleSize)" style="verticalAlign=bottom;endArrow=block;shadow=0;strokeWidth=1;entryX=1.053;entryY=0.044;entryDx=0;entryDy=0;entryPerimeter=0;exitX=-0.182;exitY=0.21;exitDx=0;exitDy=0;exitPerimeter=0;" parent="1" source="3nuBFxr9cyL0pnOWT2aG-6" target="3nuBFxr9cyL0pnOWT2aG-2" edge="1">
          <mxGeometry relative="1" as="geometry">
            <mxPoint x="320" y="330" as="sourcePoint" />
            <mxPoint x="570" y="320" as="targetPoint" />
          </mxGeometry>
        </mxCell>
        <mxCell id="NftAxaM487FhpwE2u1ZJ-18" value="OK(id), List&lt;Person&gt;Object" style="verticalAlign=bottom;endArrow=block;shadow=0;strokeWidth=1;entryX=-0.045;entryY=0.308;entryDx=0;entryDy=0;entryPerimeter=0;" parent="1" source="3nuBFxr9cyL0pnOWT2aG-2" target="3nuBFxr9cyL0pnOWT2aG-6" edge="1">
          <mxGeometry relative="1" as="geometry">
            <mxPoint x="330" y="330" as="sourcePoint" />
            <mxPoint x="600" y="330" as="targetPoint" />
          </mxGeometry>
        </mxCell>
        <mxCell id="NftAxaM487FhpwE2u1ZJ-22" value="" style="points=[];perimeter=orthogonalPerimeter;rounded=0;shadow=0;strokeWidth=1;" parent="1" vertex="1">
          <mxGeometry x="395" y="265" width="10" height="165" as="geometry" />
        </mxCell>
        <mxCell id="NftAxaM487FhpwE2u1ZJ-20" value="POST: addToSurvey(List&lt;Person&gt;Object, &#xa;List&lt;Comptes?&gt;)" style="verticalAlign=bottom;endArrow=block;shadow=0;strokeWidth=1;exitX=1.028;exitY=0.769;exitDx=0;exitDy=0;exitPerimeter=0;fontSize=9;" parent="1" source="NftAxaM487FhpwE2u1ZJ-22" target="NftAxaM487FhpwE2u1ZJ-1" edge="1">
          <mxGeometry relative="1" as="geometry">
            <mxPoint x="399.9999999999998" y="380" as="sourcePoint" />
            <mxPoint x="570" y="395" as="targetPoint" />
          </mxGeometry>
        </mxCell>
        <mxCell id="NftAxaM487FhpwE2u1ZJ-25" value="GET: controlSurveyInfo(surveyID)" style="verticalAlign=bottom;endArrow=block;shadow=0;strokeWidth=1;exitX=1.211;exitY=0.213;exitDx=0;exitDy=0;exitPerimeter=0;fontColor=#000000;" parent="1" edge="1">
          <mxGeometry relative="1" as="geometry">
            <mxPoint x="40" y="520.9999999999999" as="sourcePoint" />
            <mxPoint x="390" y="520" as="targetPoint" />
          </mxGeometry>
        </mxCell>
        <mxCell id="NftAxaM487FhpwE2u1ZJ-27" value="OK(id,vueSurvey?)" style="verticalAlign=bottom;endArrow=block;shadow=0;strokeWidth=1;fontColor=#000000;" parent="1" edge="1">
          <mxGeometry relative="1" as="geometry">
            <mxPoint x="390" y="570" as="sourcePoint" />
            <mxPoint x="40" y="570" as="targetPoint" />
          </mxGeometry>
        </mxCell>
        <mxCell id="NftAxaM487FhpwE2u1ZJ-30" value="&lt;h1&gt;&lt;font color=&quot;#67ab9f&quot;&gt;Note:&amp;nbsp;&lt;/font&gt;&lt;/h1&gt;&lt;p&gt;&lt;font color=&quot;#67ab9f&quot;&gt;Tout faire passer par camunda à la place de coleman ?&lt;/font&gt;&lt;/p&gt;" style="text;html=1;strokeColor=none;fillColor=none;spacing=5;spacingTop=-20;whiteSpace=wrap;overflow=hidden;rounded=0;fontSize=10;" parent="1" vertex="1">
          <mxGeometry x="60" y="680" width="190" height="70" as="geometry" />
        </mxCell>
      </root>
    </mxGraphModel>
  </diagram>
</mxfile>
